<svg width="18" height="18" viewBox="0 0 18 18" fill="none" xmlns="http://www.w3.org/2000/svg">
<path d="M9.04017 0.200195C13.7382 0.200287 17.547 4.00899 17.547 8.70703C17.547 9.68843 17.2049 11.013 16.5206 12.6797L16.3878 12.9961L17.1954 16.3184C17.2329 16.4724 17.2228 16.6345 17.1652 16.7822C17.021 17.1517 16.6237 17.3482 16.2492 17.25L16.1632 17.2217L13.2658 16.0908C11.474 16.8389 10.0656 17.2138 9.04017 17.2139C4.34212 17.2139 0.533424 13.4051 0.533333 8.70703C0.533333 4.00893 4.34207 0.200195 9.04017 0.200195ZM9.04017 1.36035C4.98272 1.36035 1.69349 4.64958 1.69349 8.70703C1.69369 12.7643 4.98284 16.0537 9.04017 16.0537C9.83244 16.0537 11.0078 15.7536 12.5294 15.1396L13.2511 14.8398L15.8937 15.8711L15.1701 12.8955L15.4367 12.2646C16.075 10.7142 16.3868 9.51556 16.3868 8.70703C16.3868 4.64963 13.0975 1.36044 9.04017 1.36035Z" fill="#262626"/>
</svg>
