<svg width="20" height="17" viewBox="0 0 20 17" fill="none" xmlns="http://www.w3.org/2000/svg">
<path d="M2.17335 1.80371C4.21183 -0.234774 7.46293 -0.37431 9.50147 1.66406L10.0083 2.25684L10.5737 1.66406C12.5648 -0.326993 15.6524 -0.234354 17.6997 1.66406L17.8442 1.80371C19.8348 3.79492 19.347 7.77404 17.4487 9.82129L17.1987 10.085L16.9204 10.3691C15.8491 11.445 14.2071 12.9182 11.9946 14.7881L10.731 15.8467C10.2949 16.2096 9.66042 16.2046 9.23096 15.834L7.67139 14.4795L6.28272 13.2578C4.63216 11.7942 3.39324 10.6486 2.56593 9.82129C0.527522 7.78284 0.135154 3.84232 2.17335 1.80371ZM16.9107 2.51465C15.2753 0.998325 12.9019 0.976962 11.4126 2.46582L9.96046 3.98535L8.65089 2.45508C7.09909 0.936224 4.6056 1.01122 2.99366 2.62305C1.49662 4.12009 1.70691 7.32165 3.38624 9.00098L3.68702 9.29883C4.53528 10.1268 5.74749 11.2371 7.31788 12.625L8.43214 13.6035L9.98878 14.9551L11.2466 13.9014L12.1489 13.1338C13.8842 11.6468 15.2003 10.4528 16.0884 9.56152L16.356 9.28809L16.5982 9.03223C18.2067 7.29726 18.4463 4.046 17.0396 2.63867L16.9107 2.51465Z" fill="#262626"/>
</svg>
