<svg width="16" height="19" viewBox="0 0 16 19" fill="none" xmlns="http://www.w3.org/2000/svg">
<path d="M15.52 0.564941C15.7335 0.564941 15.9067 0.73811 15.9067 0.95166V17.6958C15.9067 18.1229 15.5603 18.4692 15.1332 18.4692C14.9301 18.4692 14.735 18.3892 14.5903 18.2466L7.97894 11.728L1.36859 18.2466C1.06447 18.5465 0.574714 18.5429 0.274841 18.2388C0.132269 18.0941 0.0521851 17.8989 0.0521851 17.6958V0.95166C0.0521851 0.73811 0.225354 0.564941 0.438904 0.564941H15.52ZM1.21234 16.772L7.43597 10.6343C7.73696 10.3375 8.22079 10.3377 8.52191 10.6343L14.7465 16.772V1.7251H1.21234V16.772Z" fill="#262626"/>
</svg>
